<svg id="Logo" xmlns="http://www.w3.org/2000/svg" xmlns:xlink="http://www.w3.org/1999/xlink" width="167.284" height="190.738" viewBox="0 0 167.284 190.738">
  <defs>
    <linearGradient id="linear-gradient" x1="0.5" x2="0.5" gradientUnits="objectBoundingBox">
      <stop offset="0" stop-color="#f0f6f6"/>
      <stop offset="0" stop-color="#2221d0"/>
      <stop offset="0" stop-color="#1d1ba2"/>
      <stop offset="0.806" stop-color="#15125e"/>
      <stop offset="1" stop-color="#005f69"/>
    </linearGradient>
    <clipPath id="clip-path">
      <path id="Path_17" data-name="Path 17" d="M58.395,186H225.679v62.584H58.395Zm0,0" transform="translate(-58.395 -186)" fill="#f0f6f6"/>
    </clipPath>
    <clipPath id="clip-path-2">
      <path id="Path_19" data-name="Path 19" d="M58.395,59H82.777v97.258H58.395Zm0,0" transform="translate(-58.395 -59)" fill="url(#linear-gradient)"/>
    </clipPath>
    <clipPath id="clip-path-3">
      <path id="Path_21" data-name="Path 21" d="M278,59h24.895v96.926H278Zm0,0" transform="translate(-278 -59)" fill="#f0f6f6"/>
    </clipPath>
    <clipPath id="clip-path-4">
      <path id="Path_23" data-name="Path 23" d="M58.395,37.688H225.679v62.448H58.395Zm0,0" transform="translate(-58.395 -37.688)" fill="#f0f6f6"/>
    </clipPath>
    <clipPath id="clip-path-5">
      <path id="Path_25" data-name="Path 25" d="M58.395,59H82.777V79.748H58.395Zm0,0" transform="translate(-58.395 -59)"/>
    </clipPath>
    <clipPath id="clip-path-6">
      <path id="Path_27" data-name="Path 27" d="M268,186h31.379v14.581H268Zm0,0" transform="translate(-268 -186)"/>
    </clipPath>
    <clipPath id="clip-path-7">
      <path id="Path_29" data-name="Path 29" d="M58.395,186H89.91v14.913H58.395Zm0,0" transform="translate(-58.395 -186)"/>
    </clipPath>
    <clipPath id="clip-path-8">
      <path id="Path_31" data-name="Path 31" d="M279,59h24.246V79.748H279Zm0,0" transform="translate(-279 -59)"/>
    </clipPath>
    <clipPath id="clip-path-9">
      <path id="Path_260" data-name="Path 260" d="M302.895,59H278v96.926h24.895Zm0,0" transform="translate(-278 -59)" fill="#f0f6f6"/>
    </clipPath>
  </defs>
  <g id="M-REPO">
    <g id="Group_15" data-name="Group 15" transform="translate(0 96.164)" clip-path="url(#clip-path)">
      <path id="Path_16" data-name="Path 16" d="M58.437,200.526l24.178-13.948L106.78,200.5l35.329,20.411,59.272-34.2,24.37,13.809L142.1,248.787,82.6,214.449,58.437,200.526" transform="translate(-58.41 -186.203)" fill="#f0f6f6"/>
    </g>
    <g id="Group_16" data-name="Group 16" transform="translate(0 13.819)" clip-path="url(#clip-path-2)">
      <path id="Path_18" data-name="Path 18" d="M58.395,59.45l.028,96.293L82.56,141.818l.023-68.4.005-.286L58.422,59.215l-.028.236" transform="translate(-58.395 -59.076)" fill="url(#linear-gradient)"/>
    </g>
    <g id="Group_17" data-name="Group 17" transform="translate(142.389 13.819)" clip-path="url(#clip-path-3)">
      <path id="Path_20" data-name="Path 20" d="M303.268,155.741l-.2.117L278.9,141.932l.211-.117.028-68.683,24.137-13.925-.005,96.534" transform="translate(-278.316 -59.073)" fill="#f0f6f6"/>
    </g>
    <g id="Group_18" data-name="Group 18" clip-path="url(#clip-path-4)">
      <path id="Path_22" data-name="Path 22" d="M58.437,51.648,82.615,37.7,106.78,51.62,142.11,72.035l59.272-34.192,24.375,13.8L142.1,99.912,82.6,65.568,58.437,51.648" transform="translate(-58.41 -37.69)" fill="#f0f6f6"/>
    </g>
    <g id="Group_19" data-name="Group 19" transform="translate(0 13.819)" clip-path="url(#clip-path-5)">
      <path id="Path_24" data-name="Path 24" d="M58.437,59.215,82.6,73.135l-.03,6.426Zm0,0" transform="translate(-58.41 -59.076)" fill="#0e415f"/>
    </g>
    <g id="Group_20" data-name="Group 20" transform="translate(135.905 96.164)" clip-path="url(#clip-path-6)">
      <path id="Path_26" data-name="Path 26" d="M299.623,200.538l-24.16-13.925-6.933,4Zm0,0" transform="translate(-268.187 -186.216)" fill="#0e415f"/>
    </g>
    <g id="Group_21" data-name="Group 21" transform="translate(0 96.164)" clip-path="url(#clip-path-7)">
      <path id="Path_28" data-name="Path 28" d="M58.395,200.538,82.56,186.613l6.932,4Zm0,0" transform="translate(-58.395 -186.216)" fill="#0e415f"/>
    </g>
    <g id="Group_22" data-name="Group 22" transform="translate(143.037 13.819)" clip-path="url(#clip-path-8)">
      <path id="Path_30" data-name="Path 30" d="M303.4,59.207,279.266,73.132v6.512L303.4,59.207" transform="translate(-279.094 -59.073)" fill="#0e415f"/>
    </g>
    <g id="Group_137" data-name="Group 137" transform="translate(52.993 176.332)">
      <g id="Group_25" data-name="Group 25" transform="translate(0 0.122)">
        <g id="Group_24" data-name="Group 24" transform="translate(0 0)">
          <g id="Group_23" data-name="Group 23" transform="translate(0 0)">
            <path id="Path_32" data-name="Path 32" d="M10.692-7.659l-2.1-3.971H5.768v3.971h-3.6V-21.781H8.494a6.546,6.546,0,0,1,4.326,1.287,4.462,4.462,0,0,1,1.54,3.637A4.616,4.616,0,0,1,11.8-12.319l2.968,4.66Zm-4.924-6.8H8.494a2.6,2.6,0,0,0,1.8-.577,2.181,2.181,0,0,0,.648-1.7,2.086,2.086,0,0,0-.648-1.651,2.631,2.631,0,0,0-1.8-.567H5.768Zm0,0" transform="translate(-2.172 21.781)" fill="#f0f6f6"/>
          </g>
        </g>
      </g>
      <g id="Group_28" data-name="Group 28" transform="translate(16.638 0.122)">
        <g id="Group_27" data-name="Group 27" transform="translate(0 0)">
          <g id="Group_26" data-name="Group 26" transform="translate(0 0)">
            <path id="Path_33" data-name="Path 33" d="M13.225-18.955H5.768v2.806h6.737v2.827H5.768v2.837h7.679v2.827H2.172V-21.781H13.225Zm0,0" transform="translate(-2.172 21.781)" fill="#f0f6f6"/>
          </g>
        </g>
      </g>
      <g id="Group_31" data-name="Group 31" transform="translate(32.267 0.122)">
        <g id="Group_30" data-name="Group 30" transform="translate(0 0)">
          <g id="Group_29" data-name="Group 29" transform="translate(0 0)">
            <path id="Path_34" data-name="Path 34" d="M2.172-21.781h6.16a6.212,6.212,0,0,1,4.184,1.287,4.52,4.52,0,0,1,1.5,3.637,4.98,4.98,0,0,1-1.5,3.86A5.96,5.96,0,0,1,8.332-11.63H5.768v3.971h-3.6Zm3.6,2.827v4.5H8.149a2.667,2.667,0,0,0,1.834-.577,2.181,2.181,0,0,0,.648-1.7,2.086,2.086,0,0,0-.648-1.651,2.7,2.7,0,0,0-1.834-.567Zm0,0" transform="translate(-2.172 21.781)" fill="#f0f6f6"/>
          </g>
        </g>
      </g>
      <g id="Group_34" data-name="Group 34" transform="translate(47.095 0)">
        <g id="Group_33" data-name="Group 33" transform="translate(0 0)">
          <g id="Group_32" data-name="Group 32" transform="translate(0)">
            <path id="Path_35" data-name="Path 35" d="M8.369-21.969a7.664,7.664,0,0,1,5.471,2.057,6.723,6.723,0,0,1,2.178,5.106,6.828,6.828,0,0,1-2.188,5.167A7.62,7.62,0,0,1,8.369-7.562a7.592,7.592,0,0,1-5.44-2.067A6.832,6.832,0,0,1,.75-14.806a6.7,6.7,0,0,1,2.178-5.116A7.641,7.641,0,0,1,8.369-21.969Zm.041,3.009a3.806,3.806,0,0,0-2.827,1.206,4.086,4.086,0,0,0-1.165,2.968,4.159,4.159,0,0,0,1.175,3,3.8,3.8,0,0,0,2.816,1.216,3.653,3.653,0,0,0,2.776-1.216,4.23,4.23,0,0,0,1.145-3,4.133,4.133,0,0,0-1.145-2.968A3.67,3.67,0,0,0,8.409-18.96Zm0,0" transform="translate(-0.75 21.969)" fill="#f0f6f6"/>
          </g>
        </g>
      </g>
    </g>
    <g id="Group_252" data-name="Group 252" transform="translate(1.038 15.502)" clip-path="url(#clip-path-9)">
      <path id="Path_259" data-name="Path 259" d="M278.9,155.741l.2.117,24.165-13.925-.211-.117-.028-68.683L278.9,59.207l.005,96.534" transform="translate(-278.961 -59.073)" fill="#f0f6f6"/>
    </g>
  </g>
</svg>
